PathFileType	4	(X/Y/Z)	/Users/itak/Documents/Research/Walk-IL/dataset/trc/00499_00183.trc
DataRate	CameraRate	NumFrames	NumMarkers	Units	OrigDataRate	OrigDataStartFrame	OrigNumFrames
100.000000	100.000000	4	53	mm	100.000000	167	671
Frame#	Time	RPSI			LPSI			L3			STRN			T10			C7			CLAV			RBAK			LBAK			LSHO			LUPA			LAEL			LAOL			LWTS			LWPS			LFRA			LIFD			LHPS			LHTS			RSHO			RUPA			RAEL			RAOL			RWTS			RWPS			RFRA			RIFD			RHTS			RHPS			RBHD			LFHD			RFHD			LBHD			LHIP			RHIP			RASI			LASI			LKNE			LTHI			LANK			LTIP			LTOE			LMT1			LMT5			LHEE			RKNE			RTHI			RANK			RTIP			RTOE			RMT1			RMT5			RHEE			
		X1	Y1	Z1	X2	Y2	Z2	X3	Y3	Z3	X4	Y4	Z4	X5	Y5	Z5	X6	Y6	Z6	X7	Y7	Z7	X8	Y8	Z8	X9	Y9	Z9	X10	Y10	Z10	X11	Y11	Z11	X12	Y12	Z12	X13	Y13	Z13	X14	Y14	Z14	X15	Y15	Z15	X16	Y16	Z16	X17	Y17	Z17	X18	Y18	Z18	X19	Y19	Z19	X20	Y20	Z20	X21	Y21	Z21	X22	Y22	Z22	X23	Y23	Z23	X24	Y24	Z24	X25	Y25	Z25	X26	Y26	Z26	X27	Y27	Z27	X28	Y28	Z28	X29	Y29	Z29	X30	Y30	Z30	X31	Y31	Z31	X32	Y32	Z32	X33	Y33	Z33	X34	Y34	Z34	X35	Y35	Z35	X36	Y36	Z36	X37	Y37	Z37	X38	Y38	Z38	X39	Y39	Z39	X40	Y40	Z40	X41	Y41	Z41	X42	Y42	Z42	X43	Y43	Z43	X44	Y44	Z44	X45	Y45	Z45	X46	Y46	Z46	X47	Y47	Z47	X48	Y48	Z48	X49	Y49	Z49	X50	Y50	Z50	X51	Y51	Z51	X52	Y52	Z52	X53	Y53	Z53	

168	1.67	-1131.9609375	972.7908935546875	-475.8616638183594	-1071.291748046875	970.3804931640625	-583.3690185546875	-1099.466796875	1043.219970703125	-534.5721435546875	-894.3489990234375	1195.562866210938	-440.9319763183594	-1108.765991210938	1148.498779296875	-534.6325073242188	-1060.9462890625	1376.136962890625	-512.34619140625	-923.2508544921875	1291.966430664062	-454.6323852539062	-1145.369750976562	1258.038696289062	-453.7921752929688	-1052.906127929688	1322.83251953125	-603.2069702148438	-933.6771850585938	1362.307495117188	-633.6209106445312	-925.2952880859375	1236.05859375	-695.0873413085938	-916.3516845703125	1025.6611328125	-716.1786499023438	-1011.087036132812	1021.416564941406	-687.3999633789062	-859.7242431640625	837.7803955078125	-639.8480834960938	-911.997314453125	803.31591796875	-710.214111328125	-904.2153930664062	942.9627075195312	-709.627685546875	-863.0308227539062	681.008056640625	-629.5809326171875	-892.5961303710938	748.8731079101562	-695.6841430664062	-842.4451904296875	760.2687377929688	-653.18359375	-1068.234130859375	1368.592041015625	-353.8324890136719	-1107.258911132812	1301.551635742188	-307.3550415039062	-1112.917602539062	1033.421997070312	-261.6421508789062	-1154.10791015625	1016.855529785156	-311.6741333007812	-1001.50244140625	834.1881103515625	-271.0840454101562	-1084.769409179688	809.6632080078125	-241.5610961914062	-1108.382446289062	978.8656616210938	-253.9196929931641	-994.4733276367188	675.1510620117188	-269.7884521484375	-989.9500732421875	741.0294799804688	-243.9363403320312	-1060.5	736.5355834960938	-235.8730926513672	-1049.537109375	1529.076782226562	-417.19287109375	-863.7556762695312	1579.557861328125	-473.5487060546875	-929.1456298828125	1570.827392578125	-364.1865234375	-980.9974365234375	1537.5400390625	-560.7952270507812	-909.9443359375	887.7353515625	-639.2127685546875	-1103.337280273438	877.7435913085938	-310.8900451660156	-984.5769653320312	920.9651489257812	-322.3524169921875	-864.2882690429688	921.129150390625	-533.2682495117188	-945.1506958007812	464.7849731445312	-581.1058959960938	-912.7216796875	620.3807983398438	-601.4378662109375	-1071.913330078125	47.80767059326172	-595.719970703125	-982.4071044921875	314.9740295410156	-590.758056640625	-923.0626831054688	38.4862060546875	-451.9110717773438	-1005.575317382812	45.01528930664062	-458.7744750976562	-971.110107421875	45.11559677124023	-554.6619262695312	-1141.583862304688	47.96701812744141	-561.4066162109375	-1031.945678710938	494.7927551269531	-304.79296875	-1068.112670898438	749.275390625	-289.6719055175781	-1172.455322265625	77.90913391113281	-326.1763305664062	-1041.911743164062	348.8013305664062	-301.0915832519531	-976.2471313476562	45.81674194335938	-303.1676330566406	-1023.939880371094	51.64510726928711	-361.5755310058594	-1073.751220703125	56.44028854370117	-278.0120849609375	-1208.964599609375	76.88525390625	-387.4403381347656	
169	1.68	-1131.615112304688	972.6309204101562	-476.8073120117188	-1070.9130859375	970.2667236328125	-584.3074951171875	-1098.4560546875	1043.620361328125	-535.4273681640625	-893.3287353515625	1195.384155273438	-441.3168334960938	-1107.459350585938	1148.855590820312	-535.4193725585938	-1059.33349609375	1376.39697265625	-512.944580078125	-922.0642700195312	1291.843383789062	-454.9516296386719	-1144.239624023438	1258.4619140625	-454.8055725097656	-1051.170776367188	1323.21435546875	-603.8583984375	-931.7748413085938	1362.453369140625	-633.87158203125	-923.2952880859375	1236.2861328125	-695.4255981445312	-914.7288208007812	1025.87158203125	-716.665283203125	-1009.644592285156	1021.799072265625	-688.3740234375	-858.7838134765625	837.7763061523438	-640.1917724609375	-910.9239501953125	803.466064453125	-710.9444580078125	-902.7667846679688	943.1229858398438	-710.1256713867188	-862.6847534179688	681.0162353515625	-630.1674194335938	-891.6522827148438	749.038818359375	-696.3037109375	-841.4196166992188	760.3383178710938	-653.5145263671875	-1067.077514648438	1368.727416992188	-354.507568359375	-1106.379272460938	1301.679321289062	-308.1792297363281	-1112.397583007812	1033.562866210938	-262.6359252929688	-1153.633422851562	1016.971984863281	-312.6809997558594	-1000.276733398438	834.8163452148438	-272.1312255859375	-1083.39697265625	809.8873291015625	-242.4680786132812	-1107.7431640625	978.978271484375	-254.9243927001953	-992.2806396484375	675.8380126953125	-270.3858032226562	-988.166259765625	741.7997436523438	-244.8226776123047	-1058.70849609375	736.9009399414062	-236.6858520507812	-1047.756469726562	1529.082641601562	-417.3080139160156	-861.8045043945312	1579.341674804688	-473.3200988769531	-927.3792114257812	1570.493530273438	-364.0384216308594	-979.0209350585938	1537.72119140625	-560.8128662109375	-909.4210815429688	887.51904296875	-639.8801879882812	-1102.7666015625	878.01513671875	-311.4258422851562	-984.2474365234375	921.3621215820312	-323.2243347167969	-863.6856689453125	921.10595703125	-534.0220947265625	-944.8905029296875	464.698486328125	-581.5110473632812	-912.3338623046875	620.254150390625	-601.8139038085938	-1071.905151367188	47.78332901000977	-595.7308959960938	-982.2158813476562	314.8863525390625	-590.9881591796875	-923.0692749023438	38.4991569519043	-451.93994140625	-1005.588745117188	45.00090789794922	-458.7889404296875	-971.129150390625	45.08207702636719	-554.7093505859375	-1141.571655273438	47.98080062866211	-561.428955078125	-1026.780883789062	495.6860656738281	-304.1723937988281	-1066.284301757812	749.6921997070312	-290.1568298339844	-1170.706298828125	80.58424377441406	-326.5801696777344	-1037.220092773438	350.0515441894531	-300.189697265625	-975.2706298828125	45.95881652832031	-301.9866943359375	-1022.228271484375	52.19071578979492	-360.7247009277344	-1072.797485351562	57.72285842895508	-277.7381591796875	-1206.65380859375	80.08728790283203	-388.0944519042969	
170	1.69	-1131.228393554688	972.4766845703125	-477.6381225585938	-1070.499389648438	970.1515502929688	-585.1298217773438	-1097.45947265625	1043.990112304688	-536.2141723632812	-892.2670288085938	1195.20654296875	-441.64990234375	-1106.180541992188	1149.194946289062	-536.1567993164062	-1057.721923828125	1376.64013671875	-513.47705078125	-920.8524780273438	1291.712524414062	-455.21923828125	-1143.098510742188	1258.8701171875	-455.7544250488281	-1049.436645507812	1323.576416015625	-604.4490356445312	-929.8843994140625	1362.5947265625	-634.0709838867188	-921.3072509765625	1236.503173828125	-695.717529296875	-913.094482421875	1026.068603515625	-717.1026611328125	-1008.187744140625	1022.167053222656	-689.2901000976562	-857.8618774414062	837.7501220703125	-640.50927734375	-909.860595703125	803.6099243164062	-711.644287109375	-901.3072509765625	943.2702026367188	-710.58203125	-862.2651977539062	681.0272216796875	-630.68212890625	-890.6980590820312	749.1773681640625	-696.8775634765625	-840.4546508789062	760.3709106445312	-653.8291625976562	-1065.91162109375	1368.847900390625	-355.1210632324219	-1105.500244140625	1301.799682617188	-308.9554748535156	-1111.97509765625	1033.69970703125	-263.5832214355469	-1153.214965820312	1017.089599609375	-313.6628112792969	-999.0904541015625	835.4688720703125	-272.9993896484375	-1082.08544921875	810.1190795898438	-243.295654296875	-1107.211791992188	979.0917358398438	-255.8790740966797	-990.0853271484375	676.5619506835938	-270.8175048828125	-986.4275512695312	742.6071166992188	-245.5174102783203	-1056.965454101562	737.2831420898438	-237.3973693847656	-1045.970825195312	1529.089477539062	-417.3760681152344	-859.8370361328125	1579.109741210938	-473.0470275878906	-925.6065063476562	1570.145141601562	-363.8463745117188	-977.034912109375	1537.882568359375	-560.7849731445312	-908.9102783203125	887.3455200195312	-640.514404296875	-1102.094482421875	878.2884521484375	-311.885498046875	-983.8016967773438	921.7377319335938	-324.0710144042969	-863.0399169921875	921.0812377929688	-534.7922973632812	-944.6636352539062	464.6060485839844	-581.935302734375	-911.9057006835938	620.1459350585938	-602.2254028320312	-1071.904052734375	47.75801086425781	-595.7378540039062	-982.1022338867188	314.7981262207031	-591.2164916992188	-923.0739135742188	38.51364898681641	-451.97509765625	-1005.596435546875	45.00197219848633	-458.8067016601562	-971.1434326171875	45.06119537353516	-554.7582397460938	-1141.56298828125	47.99353408813477	-561.4481811523438	-1021.775451660156	496.6156921386719	-303.3700561523438	-1064.451904296875	750.1467895507812	-290.530517578125	-1168.641723632812	83.12013244628906	-326.9575500488281	-1032.683471679688	351.3463134765625	-299.2445678710938	-973.9678344726562	46.24259185791016	-300.6099243164062	-1020.145385742188	52.76996994018555	-359.6944580078125	-1071.537353515625	59.05509948730469	-277.3515014648438	-1203.971923828125	83.04146575927734	-388.7332763671875	
171	1.7	-1130.792358398438	972.330322265625	-478.3552551269531	-1070.0478515625	970.0321655273438	-585.833984375	-1096.466796875	1044.328002929688	-536.9315795898438	-891.1594848632812	1195.029907226562	-441.932861328125	-1104.927124023438	1149.517578125	-536.8480224609375	-1056.112426757812	1376.866333007812	-513.9426879882812	-919.6187133789062	1291.572265625	-455.4397583007812	-1141.940307617188	1259.25634765625	-456.6304931640625	-1047.708984375	1323.916748046875	-604.9772338867188	-928.011474609375	1362.730346679688	-634.2230834960938	-919.3429565429688	1236.704956054688	-695.965576171875	-911.4515991210938	1026.246704101562	-717.493896484375	-1006.721496582031	1022.513488769531	-690.15185546875	-856.9561767578125	837.7056274414062	-640.8055419921875	-908.7978515625	803.7418823242188	-712.3070068359375	-899.841552734375	943.4010620117188	-711.00146484375	-861.7587890625	681.0371704101562	-631.1259155273438	-889.7481079101562	749.28662109375	-697.4180908203125	-839.587646484375	760.3490600585938	-654.1405639648438	-1064.732788085938	1368.947998046875	-355.667724609375	-1104.614379882812	1301.912963867188	-309.6793823242188	-1111.64892578125	1033.829223632812	-264.4736938476562	-1152.841918945312	1017.205627441406	-314.6122436523438	-997.9398803710938	836.1412963867188	-273.668212890625	-1080.832641601562	810.3577270507812	-244.0326080322266	-1106.78857421875	979.2044677734375	-256.7700500488281	-987.8987426757812	677.314697265625	-271.0727844238281	-984.7413940429688	743.4434204101562	-245.9990234375	-1055.27587890625	737.6828002929688	-237.9938659667969	-1044.1806640625	1529.09765625	-417.3995666503906	-857.8513793945312	1578.86328125	-472.7294311523438	-923.8247680664062	1569.782592773438	-363.6141357421875	-975.037841796875	1538.028198242188	-560.7108154296875	-908.3969116210938	887.2068481445312	-641.11328125	-1101.31982421875	878.5636596679688	-312.2723083496094	-983.23486328125	922.0950927734375	-324.888671875	-862.3563842773438	921.0533447265625	-535.5748901367188	-944.4518432617188	464.5037231445312	-582.3665161132812	-911.4357299804688	620.0494384765625	-602.6746215820312	-1071.910278320312	47.73172760009766	-595.742431640625	-982.0562744140625	314.7057495117188	-591.4534301757812	-923.07470703125	38.52915573120117	-452.0153198242188	-1005.597900390625	45.01574325561523	-458.8263244628906	-971.1541748046875	45.04909896850586	-554.8065795898438	-1141.559448242188	48.00500106811523	-561.4641723632812	-1016.974487304688	497.5746459960938	-302.4299926757812	-1062.630615234375	750.6309814453125	-290.7947387695312	-1166.19873046875	85.43624877929688	-327.2646789550781	-1028.318725585938	352.65673828125	-298.2685546875	-972.2429809570312	46.70124816894531	-299.0106201171875	-1017.611267089844	53.39100646972656	-358.4640197753906	-1069.885009765625	60.40953063964844	-276.8131713867188	-1200.86279296875	85.64292144775391	-389.3213195800781	
